<svg width="107" height="97" viewBox="0 0 107 97" fill="none" xmlns="http://www.w3.org/2000/svg">
<path fill-rule="evenodd" clip-rule="evenodd" d="M46.9564 29.0714C47.1167 24.8199 51.4099 22.368 55.1005 24.4776C55.218 24.5293 55.3377 24.5336 55.4595 24.4905C57.9918 22.5337 60.5113 20.5598 63.0223 18.5686C63.2936 18.2801 62.9282 17.4944 62.9218 17.1177C62.6825 9.99238 72.3438 9.01937 73.626 15.7723C73.6708 15.8713 73.7392 15.9466 73.8354 15.9983C75.6347 16.4008 77.4383 16.7969 79.2441 17.1866C79.3616 17.2145 79.477 17.2145 79.5946 17.1844C79.8446 16.8701 80.1074 16.558 80.3767 16.2523C82.082 14.457 84.5865 14.1083 86.7876 15.1824C86.871 15.2018 86.9522 15.1953 87.0312 15.1609C89.7068 12.7801 92.3737 10.3928 95.0321 7.99256C95.3933 7.67396 94.9445 6.97005 94.9253 6.57611C93.938 -1.71161 106.245 -1.93119 105.587 6.36084C104.946 10.1517 101.159 12.13 97.7098 10.4143C97.5708 10.3992 97.4512 10.4401 97.3465 10.5348C94.7201 12.9071 92.0895 15.275 89.4567 17.6429C89.117 17.955 89.5871 18.6676 89.5807 19.0594C90.6534 26.0038 80.5092 28.1737 78.8936 20.7815C78.853 20.6868 78.7868 20.62 78.6927 20.5834C76.8101 20.1787 74.9231 19.7934 73.0362 19.4253C72.7284 19.7482 72.4293 20.0862 72.1408 20.4414C70.32 22.2668 67.6445 22.5165 65.4349 21.2465C65.3558 21.2314 65.2789 21.24 65.2062 21.2701C62.7124 23.1946 60.2292 25.1298 57.7546 27.0758C57.2631 27.3622 57.7097 28.1027 57.7161 28.5332C58.3765 35.9663 47.1445 36.8059 46.9564 29.0714ZM98.2889 5.60741C98.4171 7.94089 101.279 8.30254 102.103 6.26397C102.834 3.11894 98.3508 2.7164 98.2889 5.60741ZM0.250526 85.4709C0.23343 84.2461 0.633046 83.1784 1.45151 82.2721C7.18931 76.6407 12.9399 71.0223 18.7012 65.4168C19.9621 64.3276 21.396 63.9896 23.003 64.4029C23.3193 64.4287 23.9112 64.9238 24.189 64.6849C26.6423 62.3062 29.0741 59.9081 31.4847 57.4907C31.506 57.3788 31.4911 57.269 31.4419 57.1678C16.4318 32.7136 37.6199 2.01033 65.5289 7.5814C67.6296 8.22504 67.0996 11.101 64.8942 10.9654C42.988 6.72895 24.6955 27.233 31.3052 48.7273C38.6777 71.1536 67.1509 76.531 82.0051 58.1623C83.4518 56.8406 85.4841 58.1968 84.7917 60.0782C74.1517 74.2341 53.299 76.8194 39.3659 65.9442C39.2697 65.899 39.1693 65.8968 39.0709 65.9399C36.7139 68.2109 34.3632 70.4906 32.021 72.781C31.9569 72.865 31.9249 72.9576 31.927 73.0652C32.6921 74.811 32.504 76.8022 31.194 78.2294C25.4926 83.822 19.7847 89.4017 14.0661 94.9749C12.2881 96.7057 9.53785 96.71 7.74492 94.9943C5.58443 92.7512 3.42608 90.5017 1.27414 88.25C0.618087 87.4406 0.27617 86.515 0.250526 85.4709ZM32.6771 39.8346C32.6215 24.5357 45.4691 12.3409 60.6181 13.1675C61.5413 13.301 62.0756 13.8306 62.223 14.754C62.27 17.3997 59.0688 16.3685 57.4148 16.6333C46.7919 17.5374 38.3123 25.2913 36.4083 35.8587C33.2049 57.2173 56.6434 71.1493 73.7627 57.8481C75.7245 56.9353 77.2588 59.3226 75.5941 60.7326C58.0345 74.5914 32.9464 62.0651 32.6771 39.8346ZM94.2436 16.586C94.0918 15.4214 94.6881 14.3773 95.9211 14.3041C98.8146 14.2783 101.706 14.2826 104.599 14.3128C105.42 14.4096 105.954 14.8531 106.202 15.6474C106.247 28.7678 106.26 41.8904 106.243 55.013C106.189 56.1905 105.339 56.7976 104.215 56.7717C101.4 56.7803 98.5859 56.7717 95.7715 56.7437C95.0086 56.6189 94.5128 56.1841 94.2884 55.4414C94.2436 42.4889 94.2286 29.5385 94.2436 16.586ZM66.3239 16.7883C66.8154 19.4275 70.288 19.0443 70.2816 16.4869C69.8649 13.8306 66.3559 14.1147 66.3239 16.7883ZM97.6649 18.3081C97.6606 29.898 97.667 41.4857 97.6862 53.0735C97.7269 53.2565 97.8422 53.3404 98.0282 53.3275C99.5732 53.3275 101.116 53.321 102.659 53.3103C102.757 53.2608 102.806 53.1811 102.811 53.0713C102.828 41.3759 102.828 29.6827 102.811 17.9873C102.785 17.8065 102.678 17.7204 102.494 17.7312C101.005 17.7376 99.5176 17.7376 98.0282 17.7312C97.6606 17.6795 97.6649 18.0498 97.6649 18.3081ZM82.3085 20.0302C82.4859 23.0848 87.1531 22.269 86.0611 19.1627C85.0866 17.2705 82.3833 17.8259 82.3085 20.0302ZM62.2807 27.7798C62.238 26.5355 62.8235 25.8295 64.0395 25.6572C66.9586 25.6443 69.8756 25.6508 72.7947 25.6788C73.8375 25.922 74.3504 26.5872 74.3312 27.6721C74.3333 36.7714 74.3312 45.8728 74.3248 54.9721C74.2029 56.1496 73.5533 56.7502 72.3737 56.7717C69.5977 56.7739 66.8239 56.7717 64.048 56.7631C62.8876 56.6318 62.2978 55.9774 62.2807 54.7956C62.2807 45.791 62.2807 36.7843 62.2807 27.7798ZM50.382 29.0714C50.4888 31.7665 54.064 31.8203 54.3119 29.1811C54.1751 26.5786 50.7047 26.4064 50.382 29.0714ZM65.702 52.5353C65.7255 52.7872 65.608 53.3017 65.9948 53.306C67.4779 53.3232 68.9609 53.3275 70.444 53.321C70.6812 53.3555 70.8287 53.2608 70.8906 53.039C70.9184 45.113 70.9141 37.1869 70.8778 29.2629C70.8287 29.1704 70.7517 29.123 70.6491 29.1166C69.0891 29.0972 67.527 29.095 65.967 29.1058C65.858 29.0993 65.7747 29.1402 65.717 29.2328C65.7042 36.9996 65.6999 44.7685 65.702 52.5353ZM78.2547 54.688C78.2568 47.6208 78.2568 40.5515 78.2568 33.4843C78.2333 32.5113 78.8381 31.6545 79.8489 31.6115C82.6996 31.5986 85.5503 31.5943 88.4011 31.5986C89.4375 31.5491 90.2218 32.2121 90.256 33.269C90.2645 40.3728 90.2666 47.4766 90.2645 54.5803C90.3521 55.2197 90.1854 55.7772 89.7666 56.2551C88.7814 57.2841 81.6119 56.5543 79.8937 56.7545C78.7569 56.5457 78.2098 55.8569 78.2547 54.688ZM81.676 52.7506C81.6824 52.9917 81.6439 53.3684 82.0029 53.3232C83.4903 53.321 84.9776 53.3232 86.4671 53.3275C86.6551 53.3426 86.7727 53.2586 86.8197 53.0756C86.8411 47.1881 86.8496 41.2984 86.8453 35.4088C86.8496 35.2732 86.7962 35.1655 86.6872 35.088C85.1935 35.0493 83.6954 35.0342 82.1995 35.0428C81.9922 35.0127 81.8256 35.0751 81.6973 35.2301C81.6781 41.0703 81.6717 46.9104 81.676 52.7506ZM46.3495 42.4178C46.2448 41.2963 46.7278 40.5902 47.8027 40.2996C50.7923 40.2673 53.7819 40.263 56.7737 40.2845C57.776 40.4654 58.3038 41.0681 58.3615 42.0928C58.3636 46.3271 58.3658 50.5613 58.3658 54.7956C58.338 55.9925 57.7332 56.649 56.5515 56.7653C54.4401 56.6576 48.9588 57.015 47.2492 56.5586C46.6615 56.212 46.3645 55.6954 46.3581 55.0109C46.3516 50.8132 46.3474 46.6155 46.3495 42.4178ZM49.773 52.7506C49.7345 52.9874 49.8071 53.1746 49.9909 53.3146C51.5338 53.3232 53.0789 53.3253 54.6239 53.321C54.7265 53.3318 54.8141 53.2974 54.8825 53.222C54.9423 50.1609 54.9616 47.0977 54.9423 44.0323C54.9509 43.9139 54.9081 43.8192 54.812 43.7525C53.2584 43.7202 51.7027 43.7073 50.1469 43.7137C50.0209 43.703 49.9161 43.7439 49.8307 43.8364C49.773 46.8049 49.7537 49.7756 49.773 52.7506ZM26.5867 67.3176C27.5142 68.2196 28.4245 69.1409 29.3178 70.0816C29.431 70.2151 29.5699 70.2624 29.7345 70.228C31.9505 68.0366 34.1815 65.8602 36.4254 63.699C36.4745 63.6322 36.4831 63.5612 36.4489 63.4859C35.5171 62.5043 34.6218 61.4904 33.7584 60.4463C33.6964 60.386 33.6238 60.371 33.5447 60.399C31.3158 62.5129 29.1105 64.6526 26.9286 66.816C26.7662 66.9516 26.6529 67.1174 26.5867 67.3176ZM3.67611 85.2557C3.66115 85.5872 3.76373 85.8756 3.97956 86.1232C6.00542 88.2479 8.03769 90.3639 10.0828 92.4692C10.7709 93.0784 11.4205 92.8395 11.9804 92.2303C17.5109 86.8228 23.0414 81.4132 28.5698 76.0014C28.9481 75.601 29.0378 75.1425 28.8412 74.6259C26.7876 72.4022 24.7019 70.2065 22.5841 68.0409C21.9537 67.5113 21.3532 67.5501 20.7848 68.1593C15.2201 73.6055 9.65539 79.0496 4.08855 84.4958C3.86844 84.7046 3.73167 84.9565 3.67611 85.2557Z" fill="#999999" fill-opacity="0.996" stroke="#999999" stroke-opacity="0.996" stroke-width="0.5"/>
</svg>
