<?xml version="1.0" encoding="UTF-8"?>
<!DOCTYPE svg PUBLIC "-//W3C//DTD SVG 1.1//EN" "http://www.w3.org/Graphics/SVG/1.1/DTD/svg11.dtd">
<svg xmlns="http://www.w3.org/2000/svg" version="1.1" width="512px" height="512px" style="shape-rendering:geometricPrecision; text-rendering:geometricPrecision; image-rendering:optimizeQuality; fill-rule:evenodd; clip-rule:evenodd" xmlns:xlink="http://www.w3.org/1999/xlink">
<g><path style="opacity:1" fill="#999999" d="M 372.5,84.5 C 417.098,82.2009 447.931,101.534 465,142.5C 475.689,181.091 465.855,213.258 435.5,239C 409.442,256.754 381.442,260.42 351.5,250C 325.326,238.478 308.326,218.978 300.5,191.5C 219.166,191.667 137.833,191.5 56.5,191C 45.3639,186.561 40.5306,178.394 42,166.5C 43.6475,157.521 48.8142,151.687 57.5,149C 138.502,148.833 219.502,148.333 300.5,147.5C 312.147,112.176 336.147,91.1758 372.5,84.5 Z M 374.5,128.5 C 393.217,126.009 408.05,132.342 419,147.5C 430.784,170.858 426.284,190.358 405.5,206C 379.813,217.771 359.647,211.604 345,187.5C 336.77,158.627 346.603,138.96 374.5,128.5 Z"/></g>
<g><path style="opacity:1" fill="#999999" d="M 114.5,255.5 C 156.17,252.243 186.67,268.91 206,305.5C 208.007,310.02 209.507,314.687 210.5,319.5C 291.834,319.333 373.167,319.5 454.5,320C 467.053,325.651 471.553,335.151 468,348.5C 465.406,355.428 460.573,359.928 453.5,362C 372.498,362.167 291.498,362.667 210.5,363.5C 194.781,407.706 163.447,428.539 116.5,426C 81.9193,420.419 58.4193,401.253 46,368.5C 35.926,333.294 43.7593,302.794 69.5,277C 82.4852,265.511 97.4852,258.344 114.5,255.5 Z M 122.5,298.5 C 147.076,298.256 162.576,309.923 169,333.5C 170.884,358.269 160.051,374.435 136.5,382C 117.76,384.982 102.927,378.815 92,363.5C 80.5419,341.179 84.3753,322.013 103.5,306C 109.604,302.583 115.937,300.083 122.5,298.5 Z"/></g>
</svg>
